<svg xmlns="http://www.w3.org/2000/svg" xmlns:xlink="http://www.w3.org/1999/xlink" width="652.728"
    height="215.885" xmlns:v="https://vecta.io/nano">
    <defs>
        <clipPath id="A">
            <path d="M0 184.252h481.89V0H0z" transform="translate(-206.251 -140.139)" />
        </clipPath>
        <clipPath id="B">
            <path d="M0 184.252h481.89V0H0z" transform="translate(-247.436 -104.865)" />
        </clipPath>
        <clipPath id="C">
            <path d="M0 184.252h481.89V0H0z" transform="translate(-285.938 -102.089)" />
        </clipPath>
        <clipPath id="D">
            <path d="M0 184.252h481.89V0H0z" transform="translate(-337.769 -131.877)" />
        </clipPath>
        <clipPath id="E">
            <path d="M0 184.252h481.89V0H0z" transform="translate(-377.247 -132.319)" />
        </clipPath>
        <clipPath id="F">
            <path d="M0 184.252h481.89V0H0z" transform="translate(-418.107 -114.634)" />
        </clipPath>
        <clipPath id="G">
            <path d="M0 184.252h481.89V0H0z" transform="translate(-450.023 -140.139)" />
        </clipPath>
        <clipPath id="H">
            <path d="M0 184.252h481.89V0H0z" transform="translate(-217.694 -44.794)" />
        </clipPath>
        <clipPath id="I">
            <path d="M0 184.252h481.89V0H0z" transform="translate(-247.436 -35.025)" />
        </clipPath>
        <clipPath id="J">
            <path d="M0 184.252h481.89V0H0z" />
        </clipPath>
        <path id="K" d="M173.987 134.362h-37.795l9.633-37.776h37.796z" />
    </defs>
    <g transform="matrix(1 0 .254535 1 -49.975029 -14.360241)">
        <g fill="#1c1c1b icc-color(adobe-rgb-1998, 0.13299561, 0.13299561, 0.1289978)">
            <path d="M98.397 134.362H60.602l9.633-37.776h37.796z" />
            <path d="M126.558 172.138H88.763l9.633-37.776h37.796z" />
            <path d="M136.192 134.362H98.397l9.633-37.776h37.796z" />
            <use xlink:href="#K" />
            <path d="M108.031 96.585H70.236l9.633-37.776h37.796z" />
            <use xlink:href="#K" x="9.634" y="-37.777" />
            <path d="M60.602 134.362H22.807l9.633-37.776h37.796z" />
            <path d="M70.236 96.585H32.441l9.633-37.776H79.87z" />
            <path d="M79.87 58.809H42.075l9.633-37.776h37.796z" />
            <use xlink:href="#K" x="57.063" y="-75.553" />
            <path d="M50.968 172.138H13.173l9.633-37.776h37.796z" />
            <path d="M41.334 209.915H3.539l9.633-37.776h37.796z" />
            <use xlink:href="#K" x="37.795" />
            <use xlink:href="#K" x="47.429" y="-37.777" />
            <use xlink:href="#K" x="28.161" y="37.776" />
            <use xlink:href="#K" x="18.527" y="75.553" />
        </g>
        <path d="M114.115 134.359H76.321l9.633-37.776h37.796z" fill="#ff7000" />
        <use xlink:href="#K" x="-31.71" y="37.773" fill="#ff4900" />
        <g fill="#ff7000">
            <use xlink:href="#K" x="-22.076" y="-.003" />
            <use xlink:href="#K" x="15.719" y="-.003" />
        </g>
        <g fill="#ffa300">
            <path d="M123.749 96.582H85.955l9.633-37.776h37.796z" />
            <use xlink:href="#K" x="25.353" y="-37.78" />
        </g>
        <path d="M76.32 134.359H38.526l9.633-37.776h37.796z" fill="#ff7000" />
        <path d="M85.954 96.582H48.16l9.633-37.776h37.796z" fill="#ffa300" />
        <g fill="#ffce00">
            <path d="M95.588 58.806H57.794l9.633-37.776h37.796z" />
            <use xlink:href="#K" x="72.782" y="-75.556" />
        </g>
        <path d="M66.686 172.135H28.892l9.633-37.776h37.796z" fill="#ff4900" />
        <path d="M57.052 209.912H19.258l9.633-37.776h37.796z" fill="#ff0107" />
        <use xlink:href="#K" x="53.514" y="-.003" fill="#ff7000" />
        <path d="M237.135 96.582H199.34l9.633-37.776h37.796z" fill="#ffa300" />
        <use xlink:href="#K" x="43.88" y="37.773" fill="#ff4900" />
        <use xlink:href="#K" x="34.246" y="75.55" fill="#ff0107" />
    </g>
</svg>